Coordinates
version=1
nRows=16
nColumns=30
inDegrees=yes

Units are S.I. units (second, meters, Newtons, ...)
Angles are in degrees.

endheader
time	floatyaw	floatroll	floatpitch	floatx	floaty	floatz	pro_sup_l	deviation_l	flexion_l	cmc_flexion_l	cmc_abduction_l	mp_flexion_l	ip_flexion_l	2mcp_flexion_l	2mcp_abduction_l	2pm_flexion_l	2md_flexion_l	3mcp_flexion_l	3mcp_abduction_l	3pm_flexion_l	3md_flexion_l	4mcp_flexion_l	4mcp_abduction_l	4pm_flexion_l	4md_flexion_l	5mcp_flexion_l	5mcp_abduction_l	5pm_flexion_l	5md_flexion_l
-0.495000	-0.679314	-3.115271	87.889519	0.005617	-0.219666	0.020152	86.105322	3.355652	-1.174627	21.853981	6.791926	-16.570228	-24.489104	17.855793	6.180550	32.543247	20.589579	5.363758	4.167275	37.103439	22.037640	-6.298180	-3.652564	54.549828	27.934801	-12.395875	-7.810665	55.348333	29.321652
-0.485000	-0.679314	-3.115271	87.889519	0.008799	-0.218047	0.023398	85.938678	4.356888	-0.555388	21.087151	7.659730	-16.269600	-23.469352	18.408187	6.187245	32.022870	20.146986	6.240465	4.178442	36.383524	21.806219	-5.636840	-3.540170	54.035006	27.698945	-10.329864	-7.959303	53.156894	27.859484
-0.475000	-0.679314	-3.115271	87.889519	0.012404	-0.216336	0.026889	85.806581	5.485417	0.041108	20.286534	8.447072	-16.013371	-22.503176	19.150559	6.143868	31.418171	19.642861	7.387300	4.189967	35.484979	21.471221	-4.794887	-3.398007	53.498887	27.429350	-8.370809	-8.069585	51.138889	26.492695
-0.465000	-0.679314	-3.115271	87.889519	0.016425	-0.214511	0.030610	85.757825	6.714700	0.622343	19.477954	9.045514	-15.833397	-21.677645	20.063169	6.092493	30.748522	19.095717	8.665582	4.217677	34.526146	21.091242	-3.889830	-3.241363	53.008318	27.165171	-6.642056	-8.149842	49.359362	25.298275
-0.455000	-0.679314	-3.115271	87.889519	0.020817	-0.212583	0.034596	85.860838	8.006124	1.182245	18.698025	9.393169	-15.738005	-21.049804	21.099617	6.080133	30.030035	18.519415	9.914908	4.262572	33.616698	20.723651	-3.054121	-3.083385	52.593204	26.941474	-5.263994	-8.203192	47.860465	24.343138
-0.445000	-0.679314	-3.115271	87.889519	0.025519	-0.210594	0.038904	86.179248	9.318893	1.703880	17.973037	9.492146	-15.709952	-20.617277	22.209005	6.136499	29.272135	17.920833	11.019149	4.314114	32.815120	20.399614	-2.390943	-2.931392	52.237795	26.783967	-4.303900	-8.227819	46.648068	23.653858
-0.435000	-0.679314	-3.115271	87.889519	0.030478	-0.208598	0.043571	86.745049	10.620245	2.174392	17.306295	9.389705	-15.717066	-20.322397	23.349167	6.264569	28.485946	17.304759	11.950459	4.362058	32.116975	20.114475	-1.944942	-2.788733	51.895401	26.708807	-3.756598	-8.223550	45.699365	23.212316
-0.425000	-0.679314	-3.115271	87.889519	0.035669	-0.206644	0.048580	87.542281	11.888396	2.600011	16.683211	9.145772	-15.728586	-20.086297	24.484427	6.446088	27.698927	16.684341	12.767683	4.406748	31.478045	19.837636	-1.695317	-2.659441	51.514846	26.720543	-3.566305	-8.198719	44.986611	22.974948
-0.415000	-0.679314	-3.115271	87.889519	0.041082	-0.204780	0.053849	88.508328	13.107732	3.009447	16.086982	8.815798	-15.727166	-19.849463	25.577193	6.654378	26.962566	16.089022	13.571732	4.459635	30.857169	19.537118	-1.568332	-2.550624	51.065223	26.808023	-3.663376	-8.172801	44.492458	22.894740
-0.405000	-0.679314	-3.115271	87.889519	0.046710	-0.203053	0.059269	89.553343	14.262644	3.442935	15.508547	8.458982	-15.710662	-19.593851	26.585789	6.865100	26.344982	15.562341	14.446129	4.534058	30.252435	19.204628	-1.459117	-2.469840	50.548572	26.943252	-3.984661	-8.173918	44.204462	22.930311
-0.395000	-0.679314	-3.115271	87.889519	0.052537	-0.201512	0.064751	90.590819	15.335855	3.934671	14.941197	8.156401	-15.685108	-19.336738	27.471459	7.060796	25.910975	15.148904	15.417493	4.634098	29.707805	18.864627	-1.255277	-2.419713	49.996129	27.087368	-4.468781	-8.231841	44.098669	23.042699
-0.385000	-0.679314	-3.115271	87.889519	0.058533	-0.200195	0.070260	91.566354	16.311354	4.500201	14.366940	8.014965	-15.655404	-19.106019	28.208154	7.230842	25.699416	14.877470	16.453334	4.750375	29.286747	18.561578	-0.862330	-2.394960	49.452387	27.203386	-5.040618	-8.367581	44.130254	23.190464
-0.375000	-0.679314	-3.115271	87.889519	0.064658	-0.199126	0.075808	92.472272	17.178225	5.135664	13.751265	8.146636	-15.620069	-18.916710	28.788104	7.370683	25.708711	14.749802	17.488376	4.865597	29.032663	18.335621	-0.230446	-2.384956	48.956566	27.270179	-5.605025	-8.582937	44.240442	23.331892
-0.365000	-0.679314	-3.115271	87.889519	0.070860	-0.198308	0.081430	93.343459	17.932772	5.827270	13.054867	8.634004	-15.572160	-18.762891	29.221643	7.482328	25.897417	14.741486	18.456744	4.965093	28.944209	18.204386	0.627546	-2.380124	48.529408	27.290040	-6.059391	-8.856051	44.375100	23.434605
-0.355000	-0.679314	-3.115271	87.889519	0.077090	-0.197735	0.087150	94.239069	18.579086	6.563336	12.254416	9.504106	-15.503955	-18.625530	29.533323	7.574881	26.201076	14.814368	19.312364	5.044486	28.980540	18.161945	1.641075	-2.377349	48.169321	27.285683	-6.319514	-9.147777	44.502453	23.486014
-0.345000	-0.679314	-3.115271	87.889519	0.083308	-0.197399	0.092971	95.219580	19.129001	7.341049	11.357106	10.725156	-15.411435	-18.486727	29.755527	7.662531	26.558543	14.934291	20.033422	5.109889	29.089304	18.192476	2.712636	-2.380699	47.859333	27.289250	-6.344172	-9.416914	44.619115	23.497390
